<?xml version="1.0" encoding="UTF-8"?>
<svg version="1.1" viewBox="0 0 339 77" xmlns="http://www.w3.org/2000/svg" xmlns:xlink="http://www.w3.org/1999/xlink">
<title>Bitwala_logo_white</title>
<desc>Created with Sketch.</desc>
<defs>
<polygon id="b" points="0.06 0.139 338.09 0.139 338.09 76.94 0.06 76.94"/>
</defs>
<g fill="none" fill-rule="evenodd">
<g fill="#213F64">
<path d="m125.58 50.742v-0.147c0-3.378-0.843-6.023-2.529-7.93-1.687-1.91-4-3.42-6.939-4.528 0.915-0.484 1.77-1.062 2.566-1.739 0.795-0.679 1.493-1.461 2.095-2.355 0.604-0.893 1.084-1.898 1.447-3.008 0.36-1.11 0.541-2.389 0.541-3.841v-0.142c0-4.01-1.48-7.196-4.444-9.563-2.964-2.368-7.048-3.553-12.253-3.553h-23.493v50.717h24.07c2.844 0 5.436-0.289 7.772-0.87 2.337-0.58 4.338-1.447 5.999-2.608 1.664-1.158 2.939-2.608 3.833-4.347 0.891-1.739 1.335-3.766 1.335-6.086zm-13.877-21.66c0 1.881-0.723 3.246-2.169 4.092-1.445 0.845-3.398 1.269-5.854 1.269h-10.266v-10.722h10.988c2.361 0 4.167 0.446 5.422 1.339 1.252 0.894 1.879 2.187 1.879 3.875v0.147zm2.819 20.283c0 1.883-0.7 3.273-2.097 4.166-1.397 0.894-3.325 1.339-5.784 1.339h-13.227v-11.153h12.867c2.893 0 4.988 0.494 6.288 1.484 1.303 0.989 1.953 2.329 1.953 4.017v0.147z"/>
<path d="m132.49 21.544h11.563v-9.78h-11.563v9.78zm0.286 43.106h10.988v-38.832h-10.988v38.832z"/>
<path d="m175.86 63.058v-8.838c-1.686 0.917-3.492 1.375-5.42 1.375-2.362 0-3.542-1.257-3.542-3.764v-16.596h9.107v-9.416h-9.107v-9.927h-10.988v9.927h-4.625v9.416h4.625v18.407c0 2.266 0.277 4.14 0.833 5.614 0.554 1.469 1.323 2.668 2.311 3.586 0.988 0.915 2.17 1.555 3.544 1.919 1.371 0.364 2.903 0.544 4.589 0.544 1.831 0 3.441-0.207 4.843-0.616 1.397-0.412 2.674-0.954 3.83-1.631"/>
<polyline points="241.01 25.819 230.1 25.819 223.74 49.437 216.36 25.674 206.9 25.674 199.59 49.365 193.38 25.819 182.25 25.819 194.18 64.942 204.01 64.942 211.59 41.104 219.04 64.942 228.94 64.942 241.01 25.819"/>
<path d="m278.77 64.65v-22.53c0-5.261-1.374-9.37-4.119-12.313-2.748-2.95-7.133-4.419-13.155-4.419-3.279 0-6.072 0.284-8.385 0.867-2.314 0.58-4.532 1.327-6.65 2.242l2.746 8.41c1.783-0.68 3.482-1.2 5.095-1.561 1.614-0.361 3.482-0.544 5.603-0.544 2.748 0 4.817 0.607 6.217 1.811 1.396 1.206 2.095 2.972 2.095 5.288v0.653c-1.397-0.484-2.831-0.867-4.299-1.161-1.471-0.289-3.193-0.431-5.169-0.431-2.314 0-4.422 0.251-6.327 0.761-1.902 0.503-3.54 1.265-4.914 2.283-1.374 1.009-2.446 2.291-3.215 3.837-0.773 1.546-1.159 3.386-1.159 5.508v0.142c0 1.936 0.351 3.639 1.049 5.108 0.699 1.473 1.651 2.719 2.855 3.732 1.203 1.014 2.616 1.775 4.229 2.283 1.615 0.509 3.337 0.759 5.168 0.759 2.7 0 4.988-0.445 6.868-1.337 1.879-0.895 3.492-2.09 4.84-3.588v4.2h10.627zm-10.407-13.691c0 2.03-0.783 3.67-2.35 4.927-1.568 1.257-3.65 1.884-6.253 1.884-1.786 0-3.228-0.41-4.336-1.233-1.109-0.822-1.663-1.982-1.663-3.478v-0.144c0-1.742 0.675-3.064 2.024-3.986 1.349-0.913 3.206-1.378 5.565-1.378 1.351 0 2.613 0.138 3.794 0.4 1.181 0.267 2.253 0.619 3.219 1.053v1.955z"/>
<polygon points="286.1 64.65 297.08 64.65 297.08 11.764 286.1 11.764"/>
<mask id="a" fill="white">
<use xlink:href="#b"/>
</mask>
<path d="m338.09 64.65v-22.53c0-5.261-1.376-9.37-4.121-12.313-2.748-2.95-7.134-4.419-13.155-4.419-3.277 0-6.073 0.284-8.387 0.867-2.314 0.58-4.532 1.327-6.652 2.242l2.748 8.41c1.785-0.68 3.48-1.2 5.098-1.561 1.615-0.361 3.479-0.544 5.599-0.544 2.746 0 4.822 0.607 6.219 1.811 1.396 1.206 2.097 2.972 2.097 5.288v0.653c-1.396-0.484-2.834-0.867-4.304-1.161-1.466-0.289-3.192-0.431-5.164-0.431-2.314 0-4.422 0.251-6.327 0.761-1.902 0.503-3.543 1.265-4.917 2.283-1.374 1.009-2.444 2.291-3.215 3.837-0.77 1.546-1.156 3.386-1.156 5.508v0.142c0 1.936 0.348 3.639 1.049 5.108 0.698 1.473 1.65 2.719 2.855 3.732 1.201 1.014 2.613 1.775 4.228 2.283 1.615 0.509 3.335 0.759 5.169 0.759 2.697 0 4.988-0.445 6.868-1.337 1.876-0.895 3.492-2.09 4.837-3.588v4.2h10.631zm-10.412-13.691c0 2.03-0.78 3.67-2.347 4.927-1.57 1.257-3.652 1.884-6.253 1.884-1.785 0-3.228-0.41-4.337-1.233-1.108-0.822-1.664-1.982-1.664-3.478v-0.144c0-1.742 0.678-3.064 2.024-3.986 1.349-0.913 3.205-1.378 5.568-1.378 1.349 0 2.613 0.138 3.794 0.4 1.18 0.267 2.25 0.619 3.215 1.053v1.955z" mask="url(#a)"/>
<path d="m21.269 30.219c3.281-3.531 7.959-5.739 13.153-5.739 9.928 0 17.979 8.065 17.979 18.016s-8.051 18.024-17.979 18.024c-9.926 0-17.979-8.073-17.979-18.024v-31.787l-16.443-10.57v42.357c0 19.055 15.417 34.504 34.422 34.504 19.011 0 34.422-15.449 34.422-34.504 0-19.049-15.411-34.499-34.422-34.499-4.655 0-9.102 0.93-13.153 2.611v19.611" mask="url(#a)"/>
</g>
</g>
</svg>
